<svg width="46" height="42" viewBox="0 0 46 42" fill="none" xmlns="http://www.w3.org/2000/svg">
<path fill-rule="evenodd" clip-rule="evenodd" d="M6.89991 41.6H39.1C41.6898 41.6 43.5298 40.4707 44.6476 38.9182C45.678 37.4853 46 35.8362 46 34.7V20.9C46 20.29 45.7577 19.705 45.3263 19.2736C44.895 18.8423 44.31 18.6 43.7 18.6H36.8V7.09997C36.8 5.26997 36.073 3.51492 34.779 2.22092C33.485 0.926915 31.73 0.199951 29.9 0.199951H6.89991C5.06991 0.199951 3.31486 0.926915 2.02086 2.22092C0.726857 3.51492 -0.000106812 5.26997 -0.000106812 7.09997V34.7C-0.000106812 35.8339 0.321894 37.4853 1.3523 38.9182C2.4701 40.473 4.3101 41.6 6.89991 41.6ZM39.1 23.2C39.71 23.2 40.295 23.4423 40.7263 23.8737C41.1577 24.305 41.4 24.89 41.4 25.5V34.7C41.4 35.31 41.1577 35.895 40.7263 36.3264C40.295 36.7577 39.71 37 39.1 37C38.49 37 37.905 36.7577 37.4736 36.3264C37.0423 35.895 36.8 35.31 36.8 34.7V25.5C36.8 24.89 37.0423 24.305 37.4736 23.8737C37.905 23.4423 38.49 23.2 39.1 23.2ZM16.0999 16.3C16.0999 15.69 16.3423 15.105 16.7736 14.6736C17.2049 14.2423 17.7899 14 18.3999 14C19.0099 14 19.5949 14.2423 20.0263 14.6736C20.4576 15.105 20.6999 15.69 20.6999 16.3C20.6999 16.91 20.4576 17.495 20.0263 17.9263C19.5949 18.3577 19.0099 18.6 18.3999 18.6C17.7899 18.6 17.2049 18.3577 16.7736 17.9263C16.3423 17.495 16.0999 16.91 16.0999 16.3ZM18.3999 9.39997C16.5699 9.39997 14.8149 10.1269 13.5209 11.4209C12.2269 12.7149 11.4999 14.47 11.4999 16.3C11.4999 18.13 12.2269 19.885 13.5209 21.179C14.8149 22.473 16.5699 23.2 18.3999 23.2C20.2299 23.2 21.985 22.473 23.279 21.179C24.573 19.885 25.2999 18.13 25.2999 16.3C25.2999 14.47 24.573 12.7149 23.279 11.4209C21.985 10.1269 20.2299 9.39997 18.3999 9.39997ZM11.4999 27.8C10.8899 27.8 10.3049 28.0423 9.87357 28.4737C9.44223 28.905 9.19991 29.49 9.19991 30.1C9.19991 30.71 9.44223 31.295 9.87357 31.7264C10.3049 32.1577 10.8899 32.4 11.4999 32.4H25.2999C25.9099 32.4 26.495 32.1577 26.9263 31.7264C27.3576 31.295 27.6 30.71 27.6 30.1C27.6 29.49 27.3576 28.905 26.9263 28.4737C26.495 28.0423 25.9099 27.8 25.2999 27.8H11.4999Z" fill="white"/>
</svg>
