<svg width="46" height="28" viewBox="0 0 46 28" fill="none" xmlns="http://www.w3.org/2000/svg">
<path d="M45.816 1.62541C45.5826 1.06342 45.136 0.616838 44.5741 0.383455C44.2976 0.265606 44.0006 0.203097 43.7001 0.199463H32.2005C31.5906 0.199463 31.0056 0.441774 30.5743 0.873091C30.143 1.30441 29.9006 1.8894 29.9006 2.49937C29.9006 3.10935 30.143 3.69434 30.5743 4.12565C31.0056 4.55697 31.5906 4.79928 32.2005 4.79928H38.1573L25.3008 17.6558L17.7341 10.0661C17.5203 9.8505 17.2659 9.6794 16.9857 9.56264C16.7054 9.44588 16.4048 9.38576 16.1012 9.38576C15.7976 9.38576 15.497 9.44588 15.2167 9.56264C14.9364 9.6794 14.6821 9.8505 14.4683 10.0661L0.6688 23.8655C0.453233 24.0793 0.282133 24.3337 0.16537 24.614C0.0486066 24.8942 -0.0115089 25.1948 -0.0115089 25.4985C-0.0115089 25.8021 0.0486066 26.1027 0.16537 26.3829C0.282133 26.6632 0.453233 26.9176 0.6688 27.1314C0.882607 27.347 1.13698 27.5181 1.41724 27.6348C1.69751 27.7516 1.99812 27.8117 2.30174 27.8117C2.60535 27.8117 2.90596 27.7516 3.18623 27.6348C3.46649 27.5181 3.72086 27.347 3.93467 27.1314L16.1012 14.9419L23.6679 22.5316C23.8817 22.7471 24.1361 22.9182 24.4163 23.035C24.6966 23.1518 24.9972 23.2119 25.3008 23.2119C25.6044 23.2119 25.905 23.1518 26.1853 23.035C26.4656 22.9182 26.7199 22.7471 26.9338 22.5316L41.4002 8.04215V13.9989C41.4002 14.6089 41.6425 15.1939 42.0738 15.6252C42.5051 16.0565 43.0901 16.2988 43.7001 16.2988C44.3101 16.2988 44.8951 16.0565 45.3264 15.6252C45.7577 15.1939 46 14.6089 46 13.9989V2.49937C45.9964 2.19883 45.9339 1.90191 45.816 1.62541Z" fill="white"/>
</svg>
