<svg width="34" height="42" viewBox="0 0 34 42" fill="none" xmlns="http://www.w3.org/2000/svg">
<path fill-rule="evenodd" clip-rule="evenodd" d="M19.9895 0.405685C20.4564 0.552523 20.8643 0.844482 21.1538 1.2391C21.4434 1.63373 21.5995 2.11043 21.5995 2.59989V14.0999H30.7995C31.2202 14.0997 31.6329 14.2149 31.9927 14.433C32.3524 14.6511 32.6455 14.9636 32.84 15.3367C33.0345 15.7098 33.1229 16.129 33.0957 16.5488C33.0684 16.9687 32.9265 17.373 32.6855 17.7178L16.5855 40.7178C16.3053 41.1192 15.9043 41.4208 15.4408 41.5786C14.9774 41.7364 14.4757 41.7422 14.0088 41.5952C13.5418 41.4482 13.1339 41.156 12.8445 40.7612C12.5551 40.3663 12.3991 39.8894 12.3995 39.3999V27.8999H3.19946C2.77875 27.9001 2.36604 27.7849 2.00626 27.5668C1.64648 27.3487 1.3534 27.0361 1.15892 26.6631C0.964446 26.29 0.876019 25.8708 0.903267 25.4509C0.930515 25.0311 1.07239 24.6268 1.31346 24.282L17.4135 1.28199C17.6941 0.881295 18.0952 0.580514 18.5584 0.423341C19.0217 0.266167 19.5229 0.260788 19.9895 0.407986V0.405685Z" fill="white"/>
</svg>
